<?xml version="1.0" encoding="utf-8"?>

<!-- Uploaded to: SVG Repo, www.svgrepo.com, Generator: SVG Repo Mixer Tools -->
<svg version="1.1" id="Icons" xmlns="http://www.w3.org/2000/svg" xmlns:xlink="http://www.w3.org/1999/xlink" 
	 viewBox="0 0 32 32" xml:space="preserve">
<style type="text/css">
	.st0{fill:none;stroke:#000000;stroke-width:2;stroke-linecap:round;stroke-linejoin:round;stroke-miterlimit:10;}
	.st1{fill:none;stroke:#000000;stroke-width:2;stroke-linejoin:round;stroke-miterlimit:10;}
</style>
<path class="st0" d="M27,22.5c-0.87-0.83-2.27-0.83-3.14,0l0,0c-0.87,0.83-2.27,0.83-3.14,0l0,0c-0.87-0.83-2.27-0.83-3.14,0l0,0
	c-0.87,0.83-2.27,0.83-3.14,0l0,0c-0.87-0.83-2.27-0.83-3.14,0l0,0c-0.87,0.83-2.27,0.83-3.14,0l0,0c-0.87-0.83-2.27-0.83-3.14,0"/>
<path class="st0" d="M29,26.5c-1.03-0.83-2.69-0.83-3.71,0l0,0c-1.03,0.83-2.69,0.83-3.71,0l0,0c-1.03-0.83-2.69-0.83-3.71,0l0,0
	c-1.03,0.83-2.69,0.83-3.71,0l0,0c-1.03-0.83-2.69-0.83-3.71,0l0,0c-1.03,0.83-2.69,0.83-3.71,0l0,0c-1.03-0.83-2.69-0.83-3.71,0"/>
<path class="st0" d="M11.23,9.85C11.68,8.76,12.75,8,14,8c1.66,0,3,1.34,3,3s-1.34,3-3,3H7"/>
<path class="st0" d="M16.5,9.01c0.98-2.35,3.3-4.01,6-4.01c3.59,0,6.5,2.91,6.5,6.5S26.09,18,22.5,18H7"/>
<line class="st0" x1="3" y1="18" x2="4" y2="18"/>
</svg>